<svg xmlns="http://www.w3.org/2000/svg" width="17.2" height="12.904" viewBox="0 0 17.2 12.904">
  <path id="Path_345" data-name="Path 345" d="M17.028,6.785a4.136,4.136,0,0,0-.683-1.822,2.373,2.373,0,0,0-1.723-.776C12.214,4,8.6,4,8.6,4H8.6s-3.61,0-6.017.187a2.374,2.374,0,0,0-1.723.776A4.143,4.143,0,0,0,.172,6.785,29.554,29.554,0,0,0,0,9.754v1.391a29.543,29.543,0,0,0,.172,2.97,4.127,4.127,0,0,0,.683,1.821,2.813,2.813,0,0,0,1.9.784C4.128,16.86,8.6,16.9,8.6,16.9s3.614-.006,6.021-.191a2.383,2.383,0,0,0,1.723-.777,4.135,4.135,0,0,0,.683-1.821,29.558,29.558,0,0,0,.172-2.97V9.754A29.558,29.558,0,0,0,17.028,6.785ZM6.452,13.678V7.226l5.377,3.226Z" transform="translate(0 -4)" fill="#fff"/>
</svg>
